<svg width="408" height="188" viewBox="0 0 408 188" fill="none" xmlns="http://www.w3.org/2000/svg">
<rect x="211" y="55" width="69" height="3" rx="1.5" fill="#1562AF" fill-opacity="0.14"/>
<rect x="98" y="55" width="106" height="3" rx="1.5" fill="#1562AF" fill-opacity="0.14"/>
<rect x="-1" y="55" width="92" height="3" rx="1.5" fill="#1562AF" fill-opacity="0.14"/>
<rect x="286" y="55" width="77" height="3" rx="1.5" fill="#1562AF" fill-opacity="0.34"/>
<rect x="327" y="66" width="36" height="3" rx="1.5" fill="#1562AF" fill-opacity="0.14"/>
<rect x="183" y="66" width="137" height="3" rx="1.5" fill="#1562AF" fill-opacity="0.14"/>
<rect x="71" y="66" width="105" height="3" rx="1.5" fill="#1562AF" fill-opacity="0.34"/>
<rect x="-1" y="66" width="65" height="3" rx="1.5" fill="#1562AF" fill-opacity="0.14"/>
<rect x="-1" width="144" height="3" rx="1.5" fill="#1562AF" fill-opacity="0.14"/>
<rect x="150" width="136" height="3" rx="1.5" fill="#1562AF" fill-opacity="0.34"/>
<rect width="46" height="3" rx="1.5" transform="matrix(-1 0 0 1 339 0)" fill="#1562AF" fill-opacity="0.14"/>
<rect x="121" y="11" width="111" height="3" rx="1.5" fill="#1562AF" fill-opacity="0.14"/>
<rect x="121" y="152" width="111" height="3" rx="1.5" fill="#1562AF" fill-opacity="0.14"/>
<rect x="-1" y="11" width="115" height="3" rx="1.5" fill="#1562AF" fill-opacity="0.34"/>
<rect x="-1" y="152" width="115" height="3" rx="1.5" fill="#1562AF" fill-opacity="0.34"/>
<rect x="274" y="11" width="28" height="3" rx="1.5" fill="#1562AF" fill-opacity="0.34"/>
<rect x="239" y="11" width="28" height="3" rx="1.5" fill="#1562AF" fill-opacity="0.14"/>
<rect x="239" y="152" width="37" height="3" rx="1.5" fill="#1562AF" fill-opacity="0.14"/>
<rect x="309" y="11" width="83" height="3" rx="1.5" fill="#1562AF" fill-opacity="0.14"/>
<rect x="283" y="22" width="89" height="3" rx="1.5" fill="#1562AF" fill-opacity="0.14"/>
<rect x="283" y="163" width="19" height="3" rx="1.5" fill="#1562AF" fill-opacity="0.14"/>
<rect x="133" y="22" width="143" height="3" rx="1.5" fill="#1562AF" fill-opacity="0.34"/>
<rect x="133" y="163" width="143" height="3" rx="1.5" fill="#1562AF" fill-opacity="0.34"/>
<rect x="94" y="22" width="32" height="3" rx="1.5" fill="#1562AF" fill-opacity="0.14"/>
<rect x="94" y="163" width="32" height="3" rx="1.5" fill="#1562AF" fill-opacity="0.14"/>
<rect x="-1" y="22" width="88" height="3" rx="1.5" fill="#1562AF" fill-opacity="0.14"/>
<rect x="-1" y="163" width="88" height="3" rx="1.5" fill="#1562AF" fill-opacity="0.14"/>
<rect x="348" y="33" width="60" height="3" rx="1.5" fill="#1562AF" fill-opacity="0.34"/>
<rect x="200" y="33" width="142" height="3" rx="1.5" fill="#1562AF" fill-opacity="0.14"/>
<rect x="200" y="174" width="51" height="3" rx="1.5" fill="#1562AF" fill-opacity="0.14"/>
<rect x="258" y="174" width="62" height="3" rx="1.5" fill="#1562AF" fill-opacity="0.34"/>
<rect x="162" y="33" width="31" height="3" rx="1.5" fill="#1562AF" fill-opacity="0.14"/>
<rect x="105" y="33" width="51" height="3" rx="1.5" fill="#1562AF" fill-opacity="0.14"/>
<rect x="105" y="174" width="88" height="3" rx="1.5" fill="#1562AF" fill-opacity="0.14"/>
<rect x="31" y="33" width="67" height="3" rx="1.5" fill="#1562AF" fill-opacity="0.34"/>
<rect x="-1" y="174" width="99" height="3" rx="1.5" fill="#1562AF" fill-opacity="0.34"/>
<rect x="-1" y="33" width="25" height="3" rx="1.5" fill="#1562AF" fill-opacity="0.14"/>
<rect x="-1" y="44" width="72" height="3" rx="1.5" fill="#1562AF" fill-opacity="0.34"/>
<rect x="-1" y="185" width="72" height="3" rx="1.5" fill="#1562AF" fill-opacity="0.14"/>
<rect x="78" y="44" width="97" height="3" rx="1.5" fill="#1562AF" fill-opacity="0.14"/>
<rect x="78" y="185" width="55" height="3" rx="1.5" fill="#1562AF" fill-opacity="0.34"/>
</svg>
